ply
format ascii 1.0
comment Created by Blender 2.79 (sub 0) - www.blender.org, source file: 'cage.blend'
element vertex 168
property float x
property float y
property float z
property float nx
property float ny
property float nz
element face 72
property list uchar uint vertex_indices
end_header
-1.100000 0.700000 1.100000 0.000000 0.000000 1.000000
-0.700000 0.700000 1.100000 0.000000 0.000000 1.000000
-0.700000 1.100000 1.100000 0.000000 0.000000 1.000000
-1.100000 1.100000 1.100000 0.000000 0.000000 1.000000
-0.700000 -0.700000 -1.100000 1.000000 0.000000 0.000000
-0.700000 0.700000 -1.100000 1.000000 0.000000 0.000000
-0.700000 0.700000 -0.700000 1.000000 0.000000 0.000000
-0.700000 -0.700000 -0.700000 1.000000 0.000000 0.000000
-0.700000 -0.700000 -0.700000 -0.000000 0.000000 1.000000
-0.700000 0.700000 -0.700000 -0.000000 0.000000 1.000000
-1.100000 0.700000 -0.700000 -0.000000 0.000000 1.000000
-1.100000 -0.700000 -0.700000 -0.000000 0.000000 1.000000
-1.100000 -0.700000 -0.700000 -1.000000 0.000000 0.000000
-1.100000 0.700000 -0.700000 -1.000000 0.000000 0.000000
-1.100000 0.700000 -1.100000 -1.000000 0.000000 0.000000
-1.100000 -0.700000 -1.100000 -1.000000 0.000000 0.000000
-0.700000 0.700000 -1.100000 0.000000 0.000000 -1.000000
-0.700000 -0.700000 -1.100000 0.000000 0.000000 -1.000000
-1.100000 -0.700000 -1.100000 0.000000 0.000000 -1.000000
-1.100000 0.700000 -1.100000 0.000000 0.000000 -1.000000
1.100000 -0.700000 -1.100000 1.000000 0.000000 0.000000
1.100000 0.700000 -1.100000 1.000000 0.000000 0.000000
1.100000 0.700000 -0.700000 1.000000 0.000000 0.000000
1.100000 -0.700000 -0.700000 1.000000 0.000000 0.000000
1.100000 -0.700000 -0.700000 -0.000000 0.000000 1.000000
1.100000 0.700000 -0.700000 -0.000000 0.000000 1.000000
0.700000 0.700000 -0.700000 -0.000000 0.000000 1.000000
0.700000 -0.700000 -0.700000 -0.000000 0.000000 1.000000
0.700000 -0.700000 -0.700000 -1.000000 0.000000 0.000000
0.700000 0.700000 -0.700000 -1.000000 0.000000 0.000000
0.700000 0.700000 -1.100000 -1.000000 0.000000 0.000000
0.700000 -0.700000 -1.100000 -1.000000 0.000000 0.000000
1.100000 0.700000 -1.100000 0.000000 0.000000 -1.000000
1.100000 -0.700000 -1.100000 0.000000 0.000000 -1.000000
0.700000 -0.700000 -1.100000 0.000000 0.000000 -1.000000
0.700000 0.700000 -1.100000 0.000000 0.000000 -1.000000
1.100000 -0.700000 0.700000 1.000000 0.000000 0.000000
1.100000 0.700000 0.700000 1.000000 0.000000 0.000000
1.100000 0.700000 1.100000 1.000000 0.000000 0.000000
1.100000 -0.700000 1.100000 1.000000 0.000000 0.000000
1.100000 -0.700000 1.100000 -0.000000 0.000000 1.000000
1.100000 0.700000 1.100000 -0.000000 0.000000 1.000000
0.700000 0.700000 1.100000 -0.000000 0.000000 1.000000
0.700000 -0.700000 1.100000 -0.000000 0.000000 1.000000
0.700000 -0.700000 1.100000 -1.000000 0.000000 0.000000
0.700000 0.700000 1.100000 -1.000000 0.000000 0.000000
0.700000 0.700000 0.700000 -1.000000 0.000000 0.000000
0.700000 -0.700000 0.700000 -1.000000 0.000000 0.000000
1.100000 0.700000 0.700000 0.000000 0.000000 -1.000000
1.100000 -0.700000 0.700000 0.000000 0.000000 -1.000000
0.700000 -0.700000 0.700000 0.000000 0.000000 -1.000000
0.700000 0.700000 0.700000 0.000000 0.000000 -1.000000
-0.700000 1.100000 0.700000 0.000000 1.000000 0.000000
-0.700000 1.100000 1.100000 0.000000 1.000000 0.000000
0.700000 1.100000 1.100000 0.000000 1.000000 0.000000
0.700000 1.100000 0.700000 0.000000 1.000000 0.000000
-0.700000 -0.700000 0.700000 1.000000 0.000000 0.000000
-0.700000 0.700000 0.700000 1.000000 0.000000 0.000000
-0.700000 0.700000 1.100000 1.000000 0.000000 0.000000
-0.700000 -0.700000 1.100000 1.000000 0.000000 0.000000
-0.700000 -0.700000 1.100000 -0.000000 0.000000 1.000000
-1.100000 -0.700000 1.100000 -0.000000 0.000000 1.000000
-1.100000 -0.700000 1.100000 -1.000000 0.000000 0.000000
-1.100000 0.700000 1.100000 -1.000000 0.000000 0.000000
-1.100000 0.700000 0.700000 -1.000000 0.000000 0.000000
-1.100000 -0.700000 0.700000 -1.000000 0.000000 0.000000
-0.700000 0.700000 0.700000 0.000000 0.000000 -1.000000
-0.700000 -0.700000 0.700000 0.000000 0.000000 -1.000000
-1.100000 -0.700000 0.700000 0.000000 0.000000 -1.000000
-1.100000 0.700000 0.700000 0.000000 0.000000 -1.000000
-0.700000 1.100000 -1.100000 0.000000 1.000000 0.000000
-1.100000 1.100000 -1.100000 0.000000 1.000000 0.000000
-1.100000 1.100000 -0.700000 0.000000 1.000000 0.000000
-0.700000 1.100000 -0.700000 0.000000 1.000000 0.000000
-1.100000 1.100000 0.700000 0.000000 1.000000 0.000000
-1.100000 1.100000 1.100000 0.000000 1.000000 0.000000
-0.700000 0.700000 -0.700000 -0.000000 -1.000000 0.000000
-0.700000 0.700000 -1.100000 -0.000000 -1.000000 0.000000
0.700000 0.700000 -1.100000 -0.000000 -1.000000 0.000000
0.700000 0.700000 -0.700000 -0.000000 -1.000000 0.000000
-1.100000 1.100000 -0.700000 -1.000000 -0.000000 0.000000
-1.100000 1.100000 -1.100000 -1.000000 -0.000000 0.000000
-1.100000 1.100000 -1.100000 0.000000 -0.000000 -1.000000
-0.700000 1.100000 -1.100000 0.000000 -0.000000 -1.000000
-1.100000 1.100000 1.100000 -1.000000 -0.000000 0.000000
-1.100000 1.100000 0.700000 -1.000000 -0.000000 0.000000
-0.700000 1.100000 0.700000 1.000000 0.000000 -0.000000
-0.700000 1.100000 -0.700000 1.000000 0.000000 -0.000000
0.700000 1.100000 -0.700000 0.000000 1.000000 0.000000
0.700000 1.100000 -1.100000 0.000000 1.000000 0.000000
-0.700000 1.100000 -0.700000 0.000000 0.000000 1.000000
0.700000 1.100000 -0.700000 0.000000 0.000000 1.000000
-0.700000 0.700000 1.100000 -0.000000 -1.000000 0.000000
-0.700000 0.700000 0.700000 -0.000000 -1.000000 0.000000
0.700000 0.700000 0.700000 -0.000000 -1.000000 0.000000
0.700000 0.700000 1.100000 -0.000000 -1.000000 0.000000
-0.700000 1.100000 0.700000 -0.000000 0.000000 -1.000000
0.700000 1.100000 0.700000 -0.000000 0.000000 -1.000000
0.700000 1.100000 1.100000 0.000000 0.000000 1.000000
0.700000 1.100000 -1.100000 -0.000000 0.000000 -1.000000
1.100000 1.100000 -1.100000 1.000000 0.000000 0.000000
1.100000 1.100000 -0.700000 1.000000 0.000000 0.000000
1.100000 1.100000 0.700000 1.000000 0.000000 0.000000
1.100000 1.100000 1.100000 1.000000 0.000000 0.000000
0.700000 -1.100000 1.100000 0.000000 -0.000000 1.000000
1.100000 -1.100000 1.100000 0.000000 -0.000000 1.000000
1.100000 1.100000 1.100000 0.000000 1.000000 0.000000
1.100000 1.100000 0.700000 0.000000 1.000000 0.000000
1.100000 1.100000 1.100000 0.000000 0.000000 1.000000
1.100000 1.100000 -1.100000 -0.000000 0.000000 -1.000000
1.100000 1.100000 -0.700000 0.000000 1.000000 0.000000
1.100000 1.100000 -1.100000 0.000000 1.000000 0.000000
-1.100000 0.700000 0.700000 0.000000 -1.000000 0.000000
-1.100000 0.700000 -0.700000 0.000000 -1.000000 0.000000
0.700000 1.100000 0.700000 -1.000000 0.000000 0.000000
0.700000 1.100000 -0.700000 -1.000000 0.000000 0.000000
1.100000 0.700000 0.700000 0.000000 -1.000000 0.000000
1.100000 0.700000 -0.700000 0.000000 -1.000000 0.000000
0.700000 -1.100000 0.700000 0.000000 -1.000000 0.000000
0.700000 -1.100000 1.100000 0.000000 -1.000000 0.000000
-0.700000 -1.100000 1.100000 0.000000 -1.000000 0.000000
-0.700000 -1.100000 0.700000 0.000000 -1.000000 0.000000
0.700000 -1.100000 -1.100000 0.000000 -1.000000 -0.000000
1.100000 -1.100000 -1.100000 0.000000 -1.000000 -0.000000
1.100000 -1.100000 -0.700000 0.000000 -1.000000 -0.000000
0.700000 -1.100000 -0.700000 0.000000 -1.000000 -0.000000
1.100000 -1.100000 0.700000 0.000000 -1.000000 -0.000000
1.100000 -1.100000 1.100000 0.000000 -1.000000 -0.000000
-0.700000 -0.700000 -1.100000 0.000000 1.000000 0.000000
-0.700000 -0.700000 -0.700000 0.000000 1.000000 0.000000
0.700000 -0.700000 -0.700000 0.000000 1.000000 0.000000
0.700000 -0.700000 -1.100000 0.000000 1.000000 0.000000
1.100000 -1.100000 -0.700000 1.000000 -0.000000 0.000000
1.100000 -1.100000 -1.100000 1.000000 -0.000000 0.000000
1.100000 -1.100000 -1.100000 0.000000 0.000000 -1.000000
0.700000 -1.100000 -1.100000 0.000000 0.000000 -1.000000
1.100000 -1.100000 1.100000 1.000000 -0.000000 0.000000
1.100000 -1.100000 0.700000 1.000000 -0.000000 0.000000
0.700000 -1.100000 0.700000 -1.000000 0.000000 0.000000
0.700000 -1.100000 -0.700000 -1.000000 0.000000 0.000000
-0.700000 -1.100000 -0.700000 0.000000 -1.000000 0.000000
-0.700000 -1.100000 -1.100000 0.000000 -1.000000 0.000000
0.700000 -1.100000 -0.700000 -0.000000 0.000000 1.000000
-0.700000 -1.100000 -0.700000 -0.000000 0.000000 1.000000
0.700000 -0.700000 1.100000 -0.000000 1.000000 0.000000
0.700000 -0.700000 0.700000 -0.000000 1.000000 0.000000
-0.700000 -0.700000 0.700000 -0.000000 1.000000 0.000000
-0.700000 -0.700000 1.100000 -0.000000 1.000000 0.000000
0.700000 -1.100000 0.700000 0.000000 0.000000 -1.000000
-0.700000 -1.100000 0.700000 0.000000 0.000000 -1.000000
-0.700000 -1.100000 1.100000 -0.000000 0.000000 1.000000
-0.700000 -1.100000 -1.100000 -0.000000 0.000000 -1.000000
-1.100000 -1.100000 -1.100000 -1.000000 0.000000 0.000000
-1.100000 -1.100000 -0.700000 -1.000000 0.000000 0.000000
-1.100000 -1.100000 0.700000 -1.000000 0.000000 0.000000
-1.100000 -1.100000 1.100000 -1.000000 0.000000 0.000000
-1.100000 -1.100000 1.100000 0.000000 -1.000000 0.000000
-1.100000 -1.100000 0.700000 0.000000 -1.000000 0.000000
-1.100000 -1.100000 1.100000 -0.000000 0.000000 1.000000
-1.100000 -1.100000 -1.100000 0.000000 0.000000 -1.000000
-1.100000 -1.100000 -0.700000 0.000000 -1.000000 0.000000
-1.100000 -1.100000 -1.100000 0.000000 -1.000000 0.000000
1.100000 -0.700000 0.700000 0.000000 1.000000 -0.000000
1.100000 -0.700000 -0.700000 0.000000 1.000000 -0.000000
-0.700000 -1.100000 0.700000 1.000000 0.000000 -0.000000
-0.700000 -1.100000 -0.700000 1.000000 0.000000 -0.000000
-1.100000 -0.700000 0.700000 0.000000 1.000000 -0.000000
-1.100000 -0.700000 -0.700000 0.000000 1.000000 -0.000000
4 0 1 2 3
4 4 5 6 7
4 8 9 10 11
4 12 13 14 15
4 16 17 18 19
4 20 21 22 23
4 24 25 26 27
4 28 29 30 31
4 32 33 34 35
4 36 37 38 39
4 40 41 42 43
4 44 45 46 47
4 48 49 50 51
4 52 53 54 55
4 56 57 58 59
4 60 1 0 61
4 62 63 64 65
4 66 67 68 69
4 70 71 72 73
4 52 74 75 53
4 76 77 78 79
4 14 13 80 81
4 16 19 82 83
4 64 63 84 85
4 86 57 6 87
4 74 52 73 72
4 70 73 88 89
4 90 9 26 91
4 92 93 94 95
4 66 96 97 51
4 2 1 42 98
4 16 83 99 35
4 22 21 100 101
4 38 37 102 103
4 40 43 104 105
4 55 54 106 107
4 98 42 41 108
4 35 99 109 32
4 89 88 110 111
4 102 37 22 101
4 93 112 113 76
4 64 85 80 13
4 46 114 115 29
4 55 107 110 88
4 116 94 79 117
4 118 119 120 121
4 122 123 124 125
4 118 126 127 119
4 128 129 130 131
4 20 23 132 133
4 34 33 134 135
4 36 39 136 137
4 138 47 28 139
4 126 118 125 124
4 122 125 140 141
4 142 27 8 143
4 144 145 146 147
4 50 148 149 67
4 104 43 60 150
4 151 17 34 135
4 12 15 152 153
4 62 65 154 155
4 121 120 156 157
4 150 60 61 158
4 17 151 159 18
4 141 140 160 161
4 154 65 12 153
4 145 162 163 130
4 36 137 132 23
4 56 164 165 7
4 121 157 160 140
4 166 146 129 167
