P3
# Created by GIMP version 2.10.22 PNM plug-in
4 4
255
0
0
0
128
128
128
32
32
32
160
160
160
192
192
192
64
64
64
224
224
224
96
96
96
48
48
48
176
176
176
16
16
16
144
144
144
240
240
240
112
112
112
208
208
208
80
80
80
